<?xml version="1.0" encoding="UTF-8"?>
<svg width="95px" height="85px" viewBox="0 0 95 85" version="1.1" xmlns="http://www.w3.org/2000/svg" xmlns:xlink="http://www.w3.org/1999/xlink">
    <!-- Generator: Sketch 49 (51002) - http://www.bohemiancoding.com/sketch -->
    <title>Artboard 2</title>
    <desc>Created with Sketch.</desc>
    <defs></defs>
    <g id="Artboard-2" stroke="none" stroke-width="1" fill="none" fill-rule="evenodd">
        <g id="Group-3-Copy" transform="translate(-15.000000, -126.000000)">
            <g id="Group" transform="translate(52.572046, 63.553199) rotate(200.000000) translate(-52.572046, -63.553199) translate(16.572046, 9.553199)"></g>
        </g>
        <g id="Group" transform="translate(37.000000, 56.000000) rotate(200.000000) translate(-37.000000, -56.000000) translate(1.000000, 2.000000)" stroke="#000000" stroke-width="0.1">
            <polygon id="Path" transform="translate(48.709129, 80.776686) rotate(-20.000000) translate(-48.709129, -80.776686) " points="32.4727528 58.0279471 32.4727528 103.525426 42.8195165 93.6035733 42.8195165 80.7766864 51.1362234 90.9344495 64.9455055 90.9344495"></polygon>
        </g>
        <polygon id="Path" stroke="#000000" stroke-width="0.1" points="0 84 0 34 10 34 10 84"></polygon>
        <polygon id="Path" points="18 44 18 35 28 35 28 44"></polygon>
        <polygon id="Path" stroke="#000000" stroke-width="0.1" points="19 84 19 48 28 48 28 84"></polygon>
        <path d="M32,48.4864865 C32,45.2912753 32.7764521,42.1988137 34.3293796,39.209009 C35.882307,36.2192043 38.0822546,33.9369448 40.9292883,32.3621622 C43.776322,30.7873795 46.9552744,30 50.4662409,30 C55.8902339,30 60.3351408,31.785868 63.8010949,35.3576577 C67.267049,38.9294473 69,43.4426154 69,48.8972973 C69,54.3976251 67.2501696,58.9564384 63.7504562,62.5738739 C60.2507428,66.1913094 55.8452212,68 50.5337591,68 C47.2478546,68 44.1139139,67.2468544 41.1318431,65.7405405 C38.1497722,64.2342267 35.882307,62.0261407 34.3293796,59.1162162 C32.7764521,56.2062918 32,52.6630839 32,48.4864865 Z M41.7226277,49 C41.7226277,52.606024 42.5665974,55.367558 44.254562,57.2846847 C45.9425267,59.2018114 48.0243185,60.1603604 50.5,60.1603604 C52.9756815,60.1603604 55.0518468,59.2018114 56.7285584,57.2846847 C58.4052699,55.367558 59.2436131,52.5832014 59.2436131,48.9315315 C59.2436131,45.3711534 58.4052699,42.632442 56.7285584,40.7153153 C55.0518468,38.7981886 52.9756815,37.8396396 50.5,37.8396396 C48.0243185,37.8396396 45.9425267,38.7981886 44.254562,40.7153153 C42.5665974,42.632442 41.7226277,45.393976 41.7226277,49 Z" id="Combined-Shape" stroke="#000000" stroke-width="0.1"></path>
        <path d="M93.2284345,30.8336756 L93.2284345,38.4996578 L86.7875399,38.4996578 L86.7875399,53.1471595 C86.7875399,56.1131793 86.8490409,57.8414304 86.9720447,58.3319644 C87.0950485,58.8224985 87.3745985,59.2274682 87.8107029,59.5468857 C88.2468073,59.8663032 88.7779521,60.0260096 89.4041534,60.0260096 C90.2763622,60.0260096 91.5399278,59.7180044 93.1948882,59.1019849 L94,66.5626283 C91.8082958,67.5208809 89.3258925,68 86.5527157,68 C84.8530266,68 83.3210931,67.7091063 81.956869,67.1273101 C80.5926449,66.5455139 79.5918562,65.7926124 78.9544728,64.8685832 C78.3170895,63.9445539 77.8754006,62.695422 77.629393,61.1211499 C77.428114,60.0031886 77.327476,57.7444843 77.327476,54.3449692 L77.327476,38.4996578 L73,38.4996578 L73,30.8336756 L77.327476,30.8336756 L77.327476,23.6125941 L86.7875399,18 L86.7875399,30.8336756 L93.2284345,30.8336756 Z" id="Path" stroke="#000000" stroke-width="0.1"></path>
    </g>
</svg>